<?xml version="1.0" standalone="no"?>
<!DOCTYPE svg PUBLIC "-//W3C//DTD SVG 20010904//EN"
 "http://www.w3.org/TR/2001/REC-SVG-20010904/DTD/svg10.dtd">
<svg version="1.0" xmlns="http://www.w3.org/2000/svg"
 width="117.000000pt" height="117.000000pt" viewBox="0 0 117.000000 117.000000"
 preserveAspectRatio="xMidYMid meet">
<metadata>
Created by potrace 1.11, written by Peter Selinger 2001-2013
</metadata>
<g transform="translate(0.000000,117.000000) scale(0.100000,-0.100000)"
fill="#000000" stroke="none">
<path d="M407 1138 c-3 -13 -16 -85 -28 -160 l-24 -138 -96 0 -97 0 -11 -63
c-6 -35 -11 -69 -11 -75 0 -8 28 -12 88 -12 49 0 91 -2 94 -5 3 -4 2 -23 -2
-43 -5 -20 -13 -70 -20 -109 l-12 -73 -98 0 -97 0 -7 -42 c-4 -24 -9 -58 -12
-75 l-6 -33 96 0 c53 0 96 -3 96 -7 0 -5 -11 -73 -25 -153 -14 -80 -25 -146
-25 -147 0 -2 37 -3 83 -3 l84 0 22 133 c13 72 25 142 28 155 5 21 9 22 114
22 60 0 109 -2 109 -5 0 -2 -11 -69 -25 -147 -14 -78 -25 -146 -25 -150 0 -5
38 -8 84 -8 l83 0 17 108 c10 59 22 128 28 154 l10 48 98 0 97 0 7 53 c4 28
10 62 13 75 5 22 4 22 -91 22 -111 0 -104 -13 -78 130 l18 95 99 5 99 5 11 73
11 72 -98 0 -97 0 5 28 c3 15 15 87 28 160 l23 132 -83 0 c-46 0 -84 -1 -85
-2 0 -2 -12 -73 -28 -158 l-27 -155 -112 -3 -112 -3 6 28 c2 15 15 88 28 161
l23 132 -82 0 c-78 0 -83 -1 -88 -22z m306 -468 c-1 -8 -9 -59 -18 -112 l-17
-98 -109 0 c-81 0 -109 3 -109 13 0 15 30 187 36 205 3 9 30 12 111 10 89 -3
108 -6 106 -18z"/>
</g>
</svg>
